<svg width="20" height="19" viewBox="0 0 20 19" fill="none" xmlns="http://www.w3.org/2000/svg">
<path fill-rule="evenodd" clip-rule="evenodd" d="M2 6.55288V15C2 17.2091 3.79086 19 6 19H16C18.2091 19 20 17.2091 20 15V6C20 3.79086 18.2091 2 16 2H8.65048C8.71425 2.11421 8.76213 2.23799 8.79171 2.36812L8.89926 2.84137C8.96558 3.13315 8.96558 3.43608 8.89926 3.72786L8.73455 4.4526C8.68165 4.68537 8.56947 4.90051 8.4089 5.07714L7.33602 6.2573C7.29155 6.30622 7.24363 6.35189 7.19264 6.39396L4.94057 8.25191C4.68477 8.46295 4.31523 8.46295 4.05943 8.25191L2 6.55288ZM5.65445 2.01472C5.00769 2.07006 4.40487 2.2793 3.88276 2.60565L3.98773 2.72112C4.26241 3.02327 4.73759 3.02327 5.01227 2.72112L5.65445 2.01472ZM8.84515 7.30969C8.37839 7.30969 8 7.68808 8 8.15485C8 8.62161 8.37839 9 8.84515 9H17.1548C17.6216 9 18 8.62161 18 8.15485C18 7.68808 17.6216 7.30969 17.1548 7.30969H8.84515ZM6 14.0742C6 13.5629 6.4145 13.1484 6.92582 13.1484H17.0742C17.5855 13.1484 18 13.5629 18 14.0742C18 14.5855 17.5855 15 17.0742 15H6.92582C6.4145 15 6 14.5855 6 14.0742Z" fill="#D9D9D9"/>
<path d="M3.54375 1.72505L4.10157 2.33865C4.31521 2.57366 4.68479 2.57365 4.89843 2.33865L5.45625 1.72505C5.53615 1.63716 5.63004 1.56309 5.73412 1.50585L6.13486 1.28544C6.45802 1.1077 6.84967 1.1077 7.17284 1.28544L7.30684 1.35915C7.57648 1.50745 7.76979 1.76402 7.83799 2.0641L7.92165 2.43218C7.97323 2.65912 7.97323 2.89473 7.92165 3.12167L7.79354 3.68536C7.75239 3.8664 7.66514 4.03373 7.54025 4.17111L6.7058 5.08901C6.67121 5.12706 6.63394 5.16258 6.59427 5.1953L4.84267 6.64038C4.64371 6.80452 4.35629 6.80452 4.15733 6.64038L2.40573 5.1953C2.36606 5.16258 2.32879 5.12706 2.2942 5.08901L1.45975 4.17111C1.33486 4.03373 1.24761 3.8664 1.20646 3.68536L1.07835 3.12167C1.02677 2.89473 1.02677 2.65911 1.07835 2.43218L1.16201 2.06409C1.23021 1.76402 1.42352 1.50745 1.69316 1.35915L1.82716 1.28544C2.15033 1.1077 2.54198 1.1077 2.86514 1.28544L3.26588 1.50585C3.36996 1.56309 3.46385 1.63716 3.54375 1.72505Z" fill="#D9D9D9" stroke="#D9D9D9" stroke-width="0.538462"/>
</svg>
